<?xml version="1.0" encoding="UTF-8" standalone="no"?>
<!DOCTYPE svg PUBLIC "-//W3C//DTD SVG 1.1//EN" "http://www.w3.org/Graphics/SVG/1.1/DTD/svg11.dtd">
<svg width="100%" height="100%" viewBox="0 0 15 15" version="1.1" xmlns="http://www.w3.org/2000/svg" xmlns:xlink="http://www.w3.org/1999/xlink" xml:space="preserve" xmlns:serif="http://www.serif.com/" style="fill-rule:evenodd;clip-rule:evenodd;stroke-linejoin:round;stroke-miterlimit:2;">
    <g>
        <clipPath id="_clip1">
            <rect x="0" y="0" width="15" height="15"/>
        </clipPath>
        <g clip-path="url(#_clip1)">
            <path d="M5.078,1.806C5.034,1.799 4.99,1.798 4.946,1.803C4.101,1.895 2.819,2.35 2.062,2.761C2.009,2.789 1.963,2.826 1.924,2.871C1.608,3.232 1.322,3.821 1.099,4.374C0.869,4.944 0.678,5.545 0.57,5.979C0.216,7.391 0.023,9.086 -0.003,10.692C-0.004,10.776 0.016,10.859 0.055,10.933C0.359,11.51 1.009,12.044 1.658,12.432C2.314,12.826 3.081,13.138 3.702,13.198C3.858,13.213 4.011,13.154 4.118,13.039C4.273,12.87 4.536,12.478 4.734,12.175C4.84,12.014 4.937,11.862 5.008,11.75C5.013,11.742 5.017,11.734 5.022,11.727C5.694,11.889 6.515,12 7.5,12C8.484,12 9.304,11.889 9.976,11.728C9.98,11.735 9.985,11.742 9.99,11.75C10.061,11.862 10.158,12.014 10.263,12.175C10.461,12.478 10.724,12.87 10.88,13.039C10.986,13.154 11.14,13.213 11.296,13.198C11.916,13.138 12.683,12.826 13.34,12.432C13.989,12.044 14.639,11.51 14.943,10.933C14.982,10.859 15.001,10.776 15,10.692C14.975,9.086 14.781,7.391 14.428,5.979C14.319,5.545 14.129,4.944 13.899,4.374C13.676,3.821 13.39,3.232 13.074,2.871C13.035,2.826 12.988,2.789 12.936,2.761C12.179,2.35 10.896,1.895 10.052,1.803C10.008,1.798 9.964,1.799 9.92,1.806C9.709,1.839 9.528,1.948 9.396,2.048C9.256,2.153 9.127,2.283 9.015,2.414C8.852,2.605 8.694,2.84 8.593,3.062C8.252,3.023 7.887,3 7.5,3C7.112,3 6.746,3.023 6.405,3.062C6.304,2.84 6.146,2.606 5.982,2.414C5.871,2.283 5.741,2.153 5.602,2.048C5.469,1.948 5.289,1.839 5.078,1.806ZM10.966,11.421C11.008,11.486 11.054,11.556 11.101,11.628C11.231,11.827 11.359,12.018 11.459,12.158C11.851,12.068 12.348,11.861 12.826,11.575C13.366,11.251 13.791,10.881 13.998,10.568C13.965,9.065 13.779,7.505 13.458,6.221C13.361,5.833 13.185,5.277 12.972,4.749C12.772,4.253 12.56,3.835 12.375,3.595C11.728,3.26 10.713,2.907 10.05,2.811C10.036,2.819 10.02,2.83 9.999,2.846C9.932,2.896 9.855,2.97 9.776,3.062C9.724,3.123 9.678,3.185 9.638,3.243C10.006,3.328 10.331,3.429 10.608,3.53C10.975,3.663 11.261,3.798 11.458,3.9C11.557,3.952 11.633,3.996 11.687,4.027C11.713,4.043 11.734,4.056 11.75,4.066L11.768,4.078L11.777,4.084L11.777,4.084C11.777,4.084 11.777,4.084 11.515,4.478L11.777,4.084C12.007,4.237 12.069,4.548 11.916,4.777C11.763,5.007 11.454,5.069 11.224,4.917L11.224,4.917L11.223,4.916L11.223,4.916C11.223,4.916 11.223,4.916 11.5,4.5L11.223,4.916L11.216,4.912C11.208,4.906 11.194,4.898 11.175,4.887C11.137,4.864 11.076,4.829 10.995,4.787C10.833,4.702 10.588,4.587 10.267,4.47C9.625,4.236 8.683,4 7.5,4C6.317,4 5.375,4.236 4.733,4.47C4.412,4.587 4.167,4.702 4.005,4.787C3.924,4.829 3.864,4.864 3.825,4.887C3.806,4.898 3.792,4.906 3.784,4.912L3.777,4.917C3.777,4.917 3.777,4.916 3.777,4.916L3.777,4.916C3.547,5.069 3.237,5.007 3.084,4.777C2.931,4.548 2.993,4.237 3.223,4.084L3.5,4.5C3.223,4.084 3.223,4.084 3.223,4.084L3.232,4.078L3.25,4.066C3.266,4.056 3.287,4.043 3.313,4.027C3.367,3.996 3.444,3.952 3.542,3.9C3.739,3.798 4.025,3.663 4.392,3.53C4.669,3.429 4.993,3.329 5.359,3.243C5.32,3.185 5.273,3.124 5.221,3.062C5.143,2.97 5.065,2.896 4.999,2.846C4.978,2.83 4.961,2.819 4.948,2.811C4.284,2.907 3.27,3.26 2.623,3.595C2.438,3.835 2.226,4.253 2.026,4.749C1.813,5.277 1.637,5.833 1.54,6.221C1.219,7.505 1.033,9.065 1,10.568C1.207,10.881 1.632,11.251 2.172,11.575C2.65,11.861 3.146,12.068 3.538,12.158C3.639,12.018 3.767,11.827 3.897,11.628C3.944,11.556 3.99,11.486 4.032,11.42C3.937,11.383 3.846,11.345 3.761,11.308C3.36,11.131 3.066,10.952 2.867,10.812C2.768,10.743 2.692,10.682 2.639,10.638C2.613,10.615 2.592,10.597 2.576,10.582C2.569,10.575 2.562,10.569 2.557,10.564L2.547,10.554C2.547,10.554 2.546,10.554 2.9,10.2L2.546,10.554C2.351,10.358 2.351,10.042 2.546,9.847C2.741,9.652 3.055,9.651 3.25,9.844L3.254,9.847C3.26,9.852 3.27,9.861 3.285,9.874C3.316,9.901 3.368,9.942 3.442,9.994C3.59,10.098 3.827,10.244 4.164,10.393C4.837,10.689 5.918,11 7.5,11C9.082,11 10.164,10.689 10.836,10.393C11.173,10.244 11.41,10.098 11.558,9.994C11.632,9.942 11.684,9.901 11.715,9.874C11.73,9.861 11.741,9.852 11.746,9.847L11.75,9.844C11.945,9.651 12.259,9.652 12.454,9.847C12.649,10.042 12.649,10.358 12.454,10.554L12.105,10.205C12.454,10.554 12.453,10.554 12.453,10.554L12.443,10.564C12.438,10.569 12.431,10.575 12.424,10.582C12.408,10.597 12.387,10.615 12.361,10.638C12.308,10.682 12.232,10.743 12.133,10.812C11.934,10.952 11.64,11.131 11.239,11.308C11.153,11.346 11.062,11.384 10.966,11.421ZM4.08,7.012C4.324,6.75 4.655,6.602 5,6.6C5.345,6.602 5.676,6.75 5.92,7.012C6.163,7.275 6.3,7.63 6.3,8C6.3,8.37 6.163,8.725 5.92,8.988C5.676,9.25 5.345,9.398 5,9.4C4.655,9.398 4.324,9.25 4.08,8.988C3.837,8.725 3.7,8.37 3.7,8C3.7,7.63 3.837,7.275 4.08,7.012ZM9.999,6.6C9.654,6.602 9.323,6.75 9.079,7.012C8.836,7.275 8.699,7.63 8.699,8C8.699,8.37 8.836,8.725 9.079,8.988C9.323,9.25 9.654,9.398 9.999,9.4C10.344,9.398 10.675,9.25 10.918,8.988C11.162,8.725 11.299,8.37 11.299,8C11.299,7.63 11.162,7.275 10.918,7.012C10.675,6.75 10.344,6.602 9.999,6.6Z" style="fill:white;"/>
        </g>
    </g>
</svg>
